/* XPM */
static char *b4d263ea6fab43d1f9ad0711d17ce74aeBwNzmwQ5bs4EOPn[] = {
/* columns rows colors chars-per-pixel */
"50 50 53 1 ",
"  c black",
". c #040404",
"X c #090909",
"o c gray5",
"O c gray7",
"+ c gray8",
"@ c #181818",
"# c #1D1D1D",
"$ c gray14",
"% c #2A2A2A",
"& c #2C2C2C",
"* c #313131",
"= c #343434",
"- c #3A3A3A",
"; c #3C3C3C",
": c gray25",
"> c #464646",
", c #494949",
"< c gray31",
"1 c #535353",
"2 c #555555",
"3 c #585858",
"4 c gray37",
"5 c #606060",
"6 c #676767",
"7 c #6A6A6A",
"8 c #6D6D6D",
"9 c gray44",
"0 c gray46",
"q c gray48",
"w c #7E7E7E",
"e c #818181",
"r c #868686",
"t c gray54",
"y c #8E8E8E",
"u c #909090",
"i c gray58",
"p c gray60",
"a c #9F9F9F",
"s c gray65",
"d c gray67",
"f c #ACACAC",
"g c #B1B1B1",
"h c gray71",
"j c gray72",
"k c #BCBCBC",
"l c #C0C0C0",
"z c gray77",
"x c gray79",
"c c #CECECE",
"v c #D2D2D2",
"b c #D7D7D7",
"n c gray85",
/* pixels */
"nnnnnnnnnnnnnnnnnnnnnnnnnnnnnnnnnnnnnnnnnnnnnnnnnn",
"nnnnnnnnnnnnnnnnnnnnnnnnnnnnnnnnnnnnnnnnnnnnnnnnnn",
"nnnnnnnnnnnnnnnnnnnnnnnnnnnnnnnnnnnnnnnnnnnnnnnnnn",
"nnnnnnnnnnnnnnnnnnnnnnnnnnnnnnnnnnnnnnnnnnnnnnnnnn",
"nnnnnnnnnnnnnnnnnnnnnnnnnnnnnnnnnnnnnnnnnnnnnnnnnn",
"nnnnnnnnnnnnnnnnnnnnnnnnnnnnnnnnnnnnnnnnnnnnnnnnnn",
"nnnnnnnnnnnnnnnnnnnnnnnnnnnnnnnnnnnnnnnnnnnnnnnnnn",
"nnnnnnnnnnnnnnnnnnnnnnnnvzlxnnnnnnnnnnnnnnnnnnnnnn",
"nnnnnnnnnnnnnnnnnnnnkq:@    X&5dnnnnnnnf6,<ynnnnnn",
"nnnnnnnnnnnnnnnnnna-            &annnx<     qnnnnn",
"nnnnnnnnnnnnnnnnj-                <cf#      :nnnnn",
"nnnnnnnnnnnnnnnwX                  #.       4nnnnn",
"nnnnnnnnnnnnnb3                             snnnnn",
"nnnnnnnnnnnnn2                             #nnnnnn",
"nnnnnnnnnnnn0              +qgf8.          7nnnnnn",
"nnnnnnnnnnnd.             &znnnnt          hnnnnnn",
"nnnnnnnnnnb$             @znnnnnn:        &nnnnnnn",
"nnnnnnnnnne              snnnnnnnj.       qnnnnnnn",
"nnnnnnnnnv@             1nnnnnnnnn2       znnnnnnn",
"nnnnnnnnnt             .knnnnnnnnnk.     ;nnnnnnnn",
"nnnnnnnnn*             <nnnnnnnnnnn6     unnnnnnnn",
"nnnnnnnnj              dnnnnnnnnnnnv=   *bnnnnnnnn",
"nnnnnnnn9             $nnnnnnnnnnnnnby7rvnnnnnnnnn",
"nnnnnnnn*             9nnnnnnnnnnnnnnnnnnnnnnnnnnn",
"nnnnnnnc.             hnnnnnnnnnnnnnnnnnnnnnnnnnnn",
"nnnnnnns             #nnnnnnnnnnnnnnnnnnnnnnnnnnnn",
"nnnnnnnw             3nnnnnnnnnnnnnnnnnnnnnnnnnnnn",
"nnnnnnn5             unnnnnnnnnnnnnnnnnnnnnnnnnnnn",
"nnnnnnn<             knnnnnnnnnnnnnnnnnnnnnnnnnnnn",
"nnnnnnn>            onnnnnnnnnnnnnnnnnnnnnnnnnnnnn",
"nnnnnnn,            %nnnnnnnnnnnnnnnnnnnnnnnnnnnnn",
"nnnnnnn3            -nnnnnnnnnnnnu%=snnnnnnnnnnnnn",
"nnnnnnnq            ;nnnnnnnnnnne   .annnnnnnnnnnn",
"nnnnnnns            *nnnnnnnnnny     &nnnnnnnnnnnn",
"nnnnnnnbo           Obnnnnnnnni.     *nnnnnnnnnnnn",
"nnnnnnnn3            pnnnnnnne.      tnnnnnnnnnnnn",
"nnnnnnnnk.           @knnnnl<       =bnnnnnnnnnnnn",
"nnnnnnnnn8            X<63=        +lnnnnnnnnnnnnn",
"nnnnnnnnnb;                       ofnnnnnnnnnnnnnn",
"nnnnnnnnnnc*                     +gnnnnnnnnnnnnnnn",
"nnnnnnnnnnnc<                   ;znnnnnnnnnnnnnnnn",
"nnnnnnnnnnnnny#               Ornnnnnnnnnnnnnnnnnn",
"nnnnnnnnnnnnnnvt=           #0cnnnnnnnnnnnnnnnnnnn",
"nnnnnnnnnnnnnnnnnzu7,-&*;2wgnnnnnnnnnnnnnnnnnnnnnn",
"nnnnnnnnnnnnnnnnnnnnnnnnnnnnnnnnnnnnnnnnnnnnnnnnnn",
"nnnnnnnnnnnnnnnnnnnnnnnnnnnnnnnnnnnnnnnnnnnnnnnnnn",
"nnnnnnnnnnnnnnnnnnnnnnnnnnnnnnnnnnnnnnnnnnnnnnnnnn",
"nnnnnnnnnnnnnnnnnnnnnnnnnnnnnnnnnnnnnnnnnnnnnnnnnn",
"nnnnnnnnnnnnnnnnnnnnnnnnnnnnnnnnnnnnnnnnnnnnnnnnnn",
"nnnnnnnnnnnnnnnnnnnnnnnnnnnnnnnnnnnnnnnnnnnnnnnnnn"
};
