/* XPM */
static char *cf32c289e6ad4efaaa5c4a7be66617bbQ39NE8PaX9RXBx9x[] = {
/* columns rows colors chars-per-pixel */
"50 50 54 1 ",
"  c black",
". c #060606",
"X c #0B0B0B",
"o c gray5",
"O c #101010",
"+ c #161616",
"@ c #181818",
"# c #1E1E1E",
"$ c #232323",
"% c #272727",
"& c gray17",
"* c #2D2D2D",
"= c gray20",
"- c #373737",
"; c #3A3A3A",
": c #3E3E3E",
"> c #414141",
", c gray27",
"< c #484848",
"1 c #4E4E4E",
"2 c #535353",
"3 c #565656",
"4 c #585858",
"5 c #5F5F5F",
"6 c #606060",
"7 c #646464",
"8 c #6A6A6A",
"9 c gray43",
"0 c gray45",
"q c #767676",
"w c #7E7E7E",
"e c gray51",
"r c gray52",
"t c #898989",
"y c #8E8E8E",
"u c gray57",
"i c gray58",
"p c gray60",
"a c gray62",
"s c gray63",
"d c #A5A5A5",
"f c #AAAAAA",
"g c #ACACAC",
"h c #B2B2B2",
"j c #B7B7B7",
"k c #BBBBBB",
"l c gray74",
"z c #C0C0C0",
"x c gray78",
"c c #CBCBCB",
"v c gray80",
"b c #D2D2D2",
"n c gray84",
"m c gray85",
/* pixels */
"mmmmmmmmmmmmmmmmmmmmmmmmmmmmmmmmmmmmmmmmmmmmmmmmmm",
"mmmmmmmmmmmmmmmmmmmmmmmmmmmmmmmmmmmmmmmmmmmmmmmmmm",
"mmmmmmmmmmmmmmmmmmmmmmmmmmmmmmmmmmmmmmmmmmmmmmmmmm",
"mmmmmmmmmmmmmmmmmmmmmmmmmmmmmmmmmmmmmmmmmmmmmmmmmm",
"mmmmmmmmmmmmmmmmmmmmmmmmmmmmmmmmmmmmmmmmmmmmmmmmmm",
"mmmmmmmmmmmmmmmmmmmmmmmmmmmmmmmmmmmmmmmmmmmmmmmmmm",
"mmmmmmmmmmmmmmmmmmmmmmmmmmmmmmmmmmmmmmmmmmmmmmmmmm",
"mmmmmmmmmmmmmmmmmmmmmmmmmmmmmmmmmmmmmmmmmmmmmmmmmm",
"mmmmmmmmmmmmmve54444444444444444444444447unmmmmmmm",
"mmmmmmmmmmmmm;                            %xmmmmmm",
"mmmmmmmmmmmmm#                             5mmmmmm",
"mmmmmmmmmmmmmt                             -mmmmmm",
"mmmmmmmmmmmmmm#                            <mmmmmm",
"mmmmmmmmmmmmmm=            ;qqqqq0=        wmmmmmm",
"mmmmmmmmmmmmmnO            pmmmmmmcX       kmmmmmm",
"mmmmmmmmmmmmmf            .vmmmmmmm>      $mmmmmmm",
"mmmmmmmmmmmmm9            ;mmmmmmmme      5mmmmmmm",
"mmmmmmmmmmmmm*            qmmmmmmmml      pmmmmmmm",
"mmmmmmmmmmmmx             hmmmmmmmmm&    obmmmmmmm",
"mmmmmmmmmmmmy            @mmmmms7qxmsX   wmmmmmmmm",
"mmmmmmmmmmmm1            2mmmn3   %mmztrhmmmmmmmmm",
"mmmmmmmmmmmnO            ummv;    Xmmmmmmmmmmmmmmm",
"mmmmmmmmmmmf             fjd%     :mmmmmmmmmmmmmmm",
"mmmmmmmmmmm9                      wmmmmmmmmmmmmmmm",
"mmmmmmmmmmm=                      lmmmmmmmmmmmmmmm",
"mmmmmmmmmmc                      %mmmmmmmmmmmmmmmm",
"mmmmmmmmmmy                      7mmmmmmmmmmmmmmmm",
"mmmmmmmmmm1            >aa4      dmmmmmmmmmmmmmmmm",
"mmmmmmmmmnO            ymmn#    onmmmmmmmmmmmmmmmm",
"mmmmmmmmmg             xmmmr    2mmmmmmmmmmmmmmmmm",
"mmmmmmmmm9            *mmmmn=  +lmmmmmmmmmmmmmmmmm",
"mmmmmmmmm=            8mmmmmbutcmkw9inmmmmmmmmmmmm",
"mmmmmmmmc             dmmmmmmmmm0    5mmmmmmmmmmmm",
"mmmmmmmmy            onmmmmmmmm9     @mmmmmmmmmmmm",
"mmmmmmmm1            ,mmmmmmmme      =mmmmmmmmmmmm",
"mmmmmmmn+            emmmmmmmi       9mmmmmmmmmmmm",
"mmmmmmmg             lmmmmmmd.       fmmmmmmmmmmmm",
"mmmmmmm9            $mmmmmmpX       Onmmmmmmmmmmmm",
"mmmmmmb@            $55554=         1mmmmmmmmmmmmm",
"mmmmmc:                             ymmmmmmmmmmmmm",
"mmmms@                             Xvmmmmmmmmmmmmm",
"mmmbO                              6mmmmmmmmmmmmmm",
"mmmvX                             >bmmmmmmmmmmmmmm",
"mmmmlw99999999999999999999999999egmmmmmmmmmmmmmmmm",
"mmmmmmmmmmmmmmmmmmmmmmmmmmmmmmmmmmmmmmmmmmmmmmmmmm",
"mmmmmmmmmmmmmmmmmmmmmmmmmmmmmmmmmmmmmmmmmmmmmmmmmm",
"mmmmmmmmmmmmmmmmmmmmmmmmmmmmmmmmmmmmmmmmmmmmmmmmmm",
"mmmmmmmmmmmmmmmmmmmmmmmmmmmmmmmmmmmmmmmmmmmmmmmmmm",
"mmmmmmmmmmmmmmmmmmmmmmmmmmmmmmmmmmmmmmmmmmmmmmmmmm",
"mmmmmmmmmmmmmmmmmmmmmmmmmmmmmmmmmmmmmmmmmmmmmmmmmm"
};
