/* XPM */
static char *_9619389f054496fc755177dc1dd852fsu8r50Ta6THym90S[] = {
/* columns rows colors chars-per-pixel */
"50 50 53 1 ",
"  c black",
". c #040404",
"X c gray3",
"o c #0E0E0E",
"O c gray7",
"+ c #161616",
"@ c #1B1B1B",
"# c #1E1E1E",
"$ c #232323",
"% c #252525",
"& c gray16",
"* c #2F2F2F",
"= c gray20",
"- c #343434",
"; c #3A3A3A",
": c gray24",
"> c #434343",
", c gray28",
"< c gray29",
"1 c gray31",
"2 c gray32",
"3 c gray33",
"4 c #5A5A5A",
"5 c gray39",
"6 c #676767",
"7 c #686868",
"8 c #6D6D6D",
"9 c gray44",
"0 c #747474",
"q c #797979",
"w c #7C7C7C",
"e c #808080",
"r c #868686",
"t c gray54",
"y c #8E8E8E",
"u c gray57",
"i c #979797",
"p c #9A9A9A",
"a c gray62",
"s c gray64",
"d c #A4A4A4",
"f c #A9A9A9",
"g c #AFAFAF",
"h c gray71",
"j c #B9B9B9",
"k c gray",
"l c #C1C1C1",
"z c #C5C5C5",
"x c gray79",
"c c #CECECE",
"v c #D0D0D0",
"b c gray84",
"n c gray85",
/* pixels */
"nnnnnnnnnnnnnnnnnnnnnnnnnnnnnnnnnnnnnnnnnnnnnnnnnn",
"nnnnnnnnnnnnnnnnnnnnnnnnnnnnnnnnnnnnnnnnnnnnnnnnnn",
"nnnnnnnnnnnnnnnnnnnnnnnnnnnnnnnnnnnnnnnnnnnnnnnnnn",
"nnnnnnnnnnnnnnnnnnnnnnnnnnnnnnnnnnnnnnnnnnnnnnnnnn",
"nnnnnnnnnnnnnnnnnnnnnnnnnnnnnnnnnnnnnnnnnnnnnnnnnn",
"nnnnnnnnnnnnnnnnnnnnnnnnnnnnnnnnnnnnnnnnnnnnnnnnnn",
"nnnnnnnnnnnnnnnnnnnnnnnnnnnnnnnnnnnnnnnnnnnnnnnnnn",
"nnnnnnnnnnnnnnnnnnnnnnnnnnnnnnnnnnnnnnnnnnnnnnnnnn",
"nnnnnnnnnnnnng8444444444444444444459yhnnnnnnnnnnnn",
"nnnnnnnnnnnnh.                        @6lnnnnnnnnn",
"nnnnnnnnnnnnp                           Xqnnnnnnnn",
"nnnnnnnnnnnnb&                            3nnnnnnn",
"nnnnnnnnnnnnny                             0nnnnnn",
"nnnnnnnnnnnnnd             ajjs>           Xlnnnnn",
"nnnnnnnnnnnnne            @nnnnb$           9nnnnn",
"nnnnnnnnnnnnn>            4nnnnn4           ;nnnnn",
"nnnnnnnnnnnnvX            innnnn6           #nnnnn",
"nnnnnnnnnnnns            .cnnnnn2           @nnnnn",
"nnnnnnnnnnnn6            ;nnnnnn&           %nnnnn",
"nnnnnnnnnnnn%            qnnnnnx            <nnnnn",
"nnnnnnnnnnnl             hnnnnny            qnnnnn",
"nnnnnnnnnnnr            #nnnnnn>            jnnnnn",
"nnnnnnnnnnn,            4nnnnnk.           -nnnnnn",
"nnnnnnnnnnbo            pnnnnn3            annnnnn",
"nnnnnnnnnnd            Xvnnnnu            ,nnnnnnn",
"nnnnnnnnnn7            :nnnz6            @znnnnnnn",
"nnnnnnnnnn&            O%%@             +hnnnnnnnn",
"nnnnnnnnnz                             *lnnnnnnnnn",
"nnnnnnnnnt                           Owbnnnnnnnnnn",
"nnnnnnnnn<                         -rvnnnnnnnnnnnn",
"nnnnnnnnbO            O+++++@$=<7ixnnnnnnnnnnnnnnn",
"nnnnnnnnf            .cnnnnnnnnnnnnnnnnnnnnnnnnnnn",
"nnnnnnnn8            -nnnnnnnnnnnnnnnnnnnnnnnnnnnn",
"nnnnnnnn*            9nnnnnnnnnnnnnnnnnnnnnnnnnnnn",
"nnnnnnnz             gnnnnnnnnnnnnnnnnnnnnnnnnnnnn",
"nnnnnnny            +bnnnnnnnnnnnnnnnnnnnnnnnnnnnn",
"nnnnnnn1            1nnnnnnnnnnnnnnnnnnnnnnnnnnnnn",
"nnnnnnbO            rnnnnnnnnnnnnnnnnnnnnnnnnnnnnn",
"nnnnnnu             tnnnnnnnnnnnnnnnnnnnnnnnnnnnnn",
"nnnnnso             *vnnnnnnnnnnnnnnnnnnnnnnnnnnnn",
"nnnb5                >vnnnnnnnnnnnnnnnnnnnnnnnnnnn",
"nnnu                  5nnnnnnnnnnnnnnnnnnnnnnnnnnn",
"nnna                  9nnnnnnnnnnnnnnnnnnnnnnnnnnn",
"nnnngq88888888888888wdnnnnnnnnnnnnnnnnnnnnnnnnnnnn",
"nnnnnnnnnnnnnnnnnnnnnnnnnnnnnnnnnnnnnnnnnnnnnnnnnn",
"nnnnnnnnnnnnnnnnnnnnnnnnnnnnnnnnnnnnnnnnnnnnnnnnnn",
"nnnnnnnnnnnnnnnnnnnnnnnnnnnnnnnnnnnnnnnnnnnnnnnnnn",
"nnnnnnnnnnnnnnnnnnnnnnnnnnnnnnnnnnnnnnnnnnnnnnnnnn",
"nnnnnnnnnnnnnnnnnnnnnnnnnnnnnnnnnnnnnnnnnnnnnnnnnn",
"nnnnnnnnnnnnnnnnnnnnnnnnnnnnnnnnnnnnnnnnnnnnnnnnnn"
};
