/* XPM */
static char *ad3705318aee4d7dc693d4daa76c10bc7VMfT70SJRVrETxn[] = {
/* columns rows colors chars-per-pixel */
"50 50 55 1 ",
"  c #CF0000",
". c #CF0505",
"X c #CF0A0A",
"o c #CF0F0F",
"O c #CF1010",
"+ c #D01717",
"@ c #D01919",
"# c #D02323",
"$ c #D02727",
"% c #D02929",
"& c #D12D2D",
"* c #D13131",
"= c #D13434",
"- c #D13939",
"; c #D13C3C",
": c #D24242",
"> c #D24646",
", c #D24949",
"< c #D24E4E",
"1 c #D35252",
"2 c #D35757",
"3 c #D35A5A",
"4 c #D35E5E",
"5 c #D36262",
"6 c #D36565",
"7 c #D36B6B",
"8 c #D46B6B",
"9 c #D46C6C",
"0 c #D47272",
"q c #D47777",
"w c #D47979",
"e c #D57E7E",
"r c #D58282",
"t c #D58787",
"y c #D58A8A",
"u c #D58C8C",
"i c #D59090",
"p c #D59595",
"a c #D69999",
"s c #D69C9C",
"d c #D6A3A3",
"f c #D6A4A4",
"g c #D6A8A8",
"h c #D7AEAE",
"j c #D7B4B4",
"k c #D7B8B8",
"l c #D7BDBD",
"z c #D7C0C0",
"x c #D8C1C1",
"c c #D8C4C4",
"v c #D8C9C9",
"b c #D8CECE",
"n c #D8D0D0",
"m c #D9D6D6",
"M c gray85",
/* pixels */
"MMMMMMMMMMMMMMMMMMMMMMMMMMMMMMMMMMMMMMMMMMMMMMMMMM",
"MMMMMMMMMMMMMMMMMMMMMMMMMMMMMMMMMMMMMMMMMMMMMMMMMM",
"MMMMMMMMMMMMMMMMMMMMMMMMMMMMMMMMMMMMMMMMMMMMMMMMMM",
"MMMMMMMMMMMMMMMMMMMMMMMMMMMMMMMMMMMMMMMMMMMMMMMMMM",
"MMMMMMMMMMMMMMMMMMMMMMMMMMMMMMMMMMMMMMMMMMMMMMMMMM",
"MMMMMMMMMMMMMMMMMMMMMMMMMMMMMMMMMMMMMMMMMMMMMMMMMM",
"MMMMMMMMMMMMMMMMMMMMMMMMMMMMMMMMMMMMMMMMMMMMMMMMMM",
"MMMMMMMMMMMMMMMMMMMMMMMMMMMMMMMMMMMMMMMMMMMMMMMMMM",
"MMMMMMMMMMMMMh8322222222222222222350ujMMMMMMMMMMMM",
"MMMMMMMMMMMMj                         +5xMMMMMMMMM",
"MMMMMMMMMMMMa                           XqMMMMMMMM",
"MMMMMMMMMMMMm$                            2MMMMMMM",
"MMMMMMMMMMMMMu                             0MMMMMM",
"MMMMMMMMMMMMMd             skjd:           .xMMMMM",
"MMMMMMMMMMMMMe            @MMMMm#           9MMMMM",
"MMMMMMMMMMMMM:            2MMMMM3           =MMMMM",
"MMMMMMMMMMMMnX            pMMMMM6           @MMMMM",
"MMMMMMMMMMMMd            .bMMMMM1           +MMMMM",
"MMMMMMMMMMMM5            -MMMMMM%           $MMMMM",
"MMMMMMMMMMMM$            qMMMMMv            >MMMMM",
"MMMMMMMMMMMz             jMMMMMy            qMMMMM",
"MMMMMMMMMMMt            @MMMMMM:            kMMMMM",
"MMMMMMMMMMM>            3MMMMMl            =MMMMMM",
"MMMMMMMMMMmo            aMMMMM1            aMMMMMM",
"MMMMMMMMMMd            .nMMMMi            :MMMMMMM",
"MMMMMMMMMM6            ;MMMc6            @cMMMMMMM",
"MMMMMMMMMM%            o##+             +jMMMMMMMM",
"MMMMMMMMMc                             &lMMMMMMMMM",
"MMMMMMMMMt                           OwmMMMMMMMMMM",
"MMMMMMMMM,                         *rnMMMMMMMMMMMM",
"MMMMMMMMmo            O+++++@#*,8pvMMMMMMMMMMMMMMM",
"MMMMMMMMg             vMMMMMMMMMMMMMMMMMMMMMMMMMMM",
"MMMMMMMM7            *MMMMMMMMMMMMMMMMMMMMMMMMMMMM",
"MMMMMMMM&            9MMMMMMMMMMMMMMMMMMMMMMMMMMMM",
"MMMMMMMc             hMMMMMMMMMMMMMMMMMMMMMMMMMMMM",
"MMMMMMMy            OmMMMMMMMMMMMMMMMMMMMMMMMMMMMM",
"MMMMMMM<            <MMMMMMMMMMMMMMMMMMMMMMMMMMMMM",
"MMMMMMmO            tMMMMMMMMMMMMMMMMMMMMMMMMMMMMM",
"MMMMMMi             yMMMMMMMMMMMMMMMMMMMMMMMMMMMMM",
"MMMMMdo             &nMMMMMMMMMMMMMMMMMMMMMMMMMMMM",
"MMMm5                ;nMMMMMMMMMMMMMMMMMMMMMMMMMMM",
"MMMi                  4MMMMMMMMMMMMMMMMMMMMMMMMMMM",
"MMMa                  9MMMMMMMMMMMMMMMMMMMMMMMMMMM",
"MMMMhq99999999999999wfMMMMMMMMMMMMMMMMMMMMMMMMMMMM",
"MMMMMMMMMMMMMMMMMMMMMMMMMMMMMMMMMMMMMMMMMMMMMMMMMM",
"MMMMMMMMMMMMMMMMMMMMMMMMMMMMMMMMMMMMMMMMMMMMMMMMMM",
"MMMMMMMMMMMMMMMMMMMMMMMMMMMMMMMMMMMMMMMMMMMMMMMMMM",
"MMMMMMMMMMMMMMMMMMMMMMMMMMMMMMMMMMMMMMMMMMMMMMMMMM",
"MMMMMMMMMMMMMMMMMMMMMMMMMMMMMMMMMMMMMMMMMMMMMMMMMM",
"MMMMMMMMMMMMMMMMMMMMMMMMMMMMMMMMMMMMMMMMMMMMMMMMMM"
};
