/* XPM */
static char *_4e809b25b4e4cc0e6388fde8941da1dsn9zzLP6RZm8Yfo8[] = {
/* columns rows colors chars-per-pixel */
"50 50 55 1 ",
"  c #CF0000",
". c #CF0505",
"X c #CF0A0A",
"o c #CF0E0E",
"O c #CF1111",
"+ c #D01616",
"@ c #D01C1C",
"# c #D02121",
"$ c #D02626",
"% c #D12929",
"& c #D12C2C",
"* c #D13232",
"= c #D13737",
"- c #D13838",
"; c #D13C3C",
": c #D24040",
"> c #D24444",
", c #D24848",
"< c #D24D4D",
"1 c #D25252",
"2 c #D35757",
"3 c #D35858",
"4 c #D35F5F",
"5 c #D36363",
"6 c #D36464",
"7 c #D36868",
"8 c #D46B6B",
"9 c #D46D6D",
"0 c #D47171",
"q c #D47474",
"w c #D47B7B",
"e c #D47E7E",
"r c #D58080",
"t c #D58787",
"y c #D58989",
"u c #D58F8F",
"i c #D59292",
"p c #D69797",
"a c #D69898",
"s c #D69F9F",
"d c #D6A1A1",
"f c #D6A4A4",
"g c #D6A8A8",
"h c #D7ADAD",
"j c #D7B1B1",
"k c #D7B6B6",
"l c #D7BABA",
"z c #D7BCBC",
"x c #D8C0C0",
"c c #D8C6C6",
"v c #D8CBCB",
"b c #D8CCCC",
"n c #D8D1D1",
"m c #D9D6D6",
"M c gray85",
/* pixels */
"MMMMMMMMMMMMMMMMMMMMMMMMMMMMMMMMMMMMMMMMMMMMMMMMMM",
"MMMMMMMMMMMMMMMMMMMMMMMMMMMMMMMMMMMMMMMMMMMMMMMMMM",
"MMMMMMMMMMMMMMMMMMMMMMMMMMMMMMMMMMMMMMMMMMMMMMMMMM",
"MMMMMMMMMMMMMMMMMMMMMMMMMMMMMMMMMMMMMMMMMMMMMMMMMM",
"MMMMMMMMMMMMMMMMMMMMMMMMMMMMMMMMMMMMMMMMMMMMMMMMMM",
"MMMMMMMMMMMMMMMMMMMMMMMMMMMMMMMMMMMMMMMMMMMMMMMMMM",
"MMMMMMMMMMMMMMMMMMMMMMMMMMMMMMMMMMMMMMMMMMMMMMMMMM",
"MMMMMMMMMMMMMMMMMMMMMMMMMMMMMMMMMMMMMMMMMMMMMMMMMM",
"MMMMMMMMMMMMMbr43222222222222222222222236inMMMMMMM",
"MMMMMMMMMMMMM-                            $cMMMMMM",
"MMMMMMMMMMMMM@                             4MMMMMM",
"MMMMMMMMMMMMMt                             =MMMMMM",
"MMMMMMMMMMMMMM@                            ,MMMMMM",
"MMMMMMMMMMMMMM*            -qqqqq9&        eMMMMMM",
"MMMMMMMMMMMMMmo            pMMMMMMvX       lMMMMMM",
"MMMMMMMMMMMMMg            .bMMMMMMM:      @MMMMMMM",
"MMMMMMMMMMMMM7            =MMMMMMMMe      3MMMMMMM",
"MMMMMMMMMMMMM&            qMMMMMMMMz      aMMMMMMM",
"MMMMMMMMMMMMc             jMMMMMMMMM%    onMMMMMMM",
"MMMMMMMMMMMMy            +MMMMMs60cMd.   wMMMMMMMM",
"MMMMMMMMMMMM<            1MMMm2   $MMxtrjMMMMMMMMM",
"MMMMMMMMMMMmO            uMMb-    .MMMMMMMMMMMMMMM",
"MMMMMMMMMMMg             fkf$     ;MMMMMMMMMMMMMMM",
"MMMMMMMMMMM9                      eMMMMMMMMMMMMMMM",
"MMMMMMMMMMM&                      zMMMMMMMMMMMMMMM",
"MMMMMMMMMMc                      #MMMMMMMMMMMMMMMM",
"MMMMMMMMMMy                      5MMMMMMMMMMMMMMMM",
"MMMMMMMMMM<            :ss2      dMMMMMMMMMMMMMMMM",
"MMMMMMMMMmO            uMMm@    omMMMMMMMMMMMMMMMM",
"MMMMMMMMMg             cMMMr    <MMMMMMMMMMMMMMMMM",
"MMMMMMMMM9            &MMMMm*  +lMMMMMMMMMMMMMMMMM",
"MMMMMMMMM&            7MMMMMnuyvMlw9pmMMMMMMMMMMMM",
"MMMMMMMMv             fMMMMMMMMM0    3MMMMMMMMMMMM",
"MMMMMMMMu            omMMMMMMMM9     +MMMMMMMMMMMM",
"MMMMMMMM<            >MMMMMMMMr      &MMMMMMMMMMMM",
"MMMMMMMmO            rMMMMMMMi       7MMMMMMMMMMMM",
"MMMMMMMg             zMMMMMMd.       gMMMMMMMMMMMM",
"MMMMMMM8            #MMMMMMpX       OmMMMMMMMMMMMM",
"MMMMMMn+            #44443&         <MMMMMMMMMMMMM",
"MMMMMv-                             uMMMMMMMMMMMMM",
"MMMMd+                             .bMMMMMMMMMMMMM",
"MMMno                              4MMMMMMMMMMMMMM",
"MMMbX                             :nMMMMMMMMMMMMMM",
"MMMMzw99999999999999999999999999ehMMMMMMMMMMMMMMMM",
"MMMMMMMMMMMMMMMMMMMMMMMMMMMMMMMMMMMMMMMMMMMMMMMMMM",
"MMMMMMMMMMMMMMMMMMMMMMMMMMMMMMMMMMMMMMMMMMMMMMMMMM",
"MMMMMMMMMMMMMMMMMMMMMMMMMMMMMMMMMMMMMMMMMMMMMMMMMM",
"MMMMMMMMMMMMMMMMMMMMMMMMMMMMMMMMMMMMMMMMMMMMMMMMMM",
"MMMMMMMMMMMMMMMMMMMMMMMMMMMMMMMMMMMMMMMMMMMMMMMMMM",
"MMMMMMMMMMMMMMMMMMMMMMMMMMMMMMMMMMMMMMMMMMMMMMMMMM"
};
