/* XPM */
static char *_7dafd895f0540f2b327a5f638c285a9yjQRJ8l7IjWeKIB5[] = {
/* columns rows colors chars-per-pixel */
"50 50 49 1 ",
"  c black",
". c #040404",
"X c gray3",
"o c gray5",
"O c #111111",
"+ c #161616",
"@ c #1B1B1B",
"# c gray12",
"$ c #222222",
"% c gray15",
"& c gray17",
"* c #2D2D2D",
"= c gray19",
"- c #353535",
"; c #3C3C3C",
": c gray25",
"> c gray29",
", c #4C4C4C",
"< c #505050",
"1 c #555555",
"2 c #5B5B5B",
"3 c #626262",
"4 c #656565",
"5 c #6A6A6A",
"6 c #6C6C6C",
"7 c gray45",
"8 c #777777",
"9 c gray47",
"0 c #7C7C7C",
"q c gray51",
"w c #868686",
"e c gray54",
"r c #8D8D8D",
"t c gray58",
"y c gray61",
"u c #A2A2A2",
"i c #A7A7A7",
"p c #AAAAAA",
"a c #AFAFAF",
"s c #B1B1B1",
"d c #B4B4B4",
"f c gray72",
"g c #C0C0C0",
"h c #C6C6C6",
"j c #CBCBCB",
"k c gray80",
"l c LightGray",
"z c #D5D5D5",
"x c gray85",
/* pixels */
"xxxxxxxxxxxxxxxxxxxxxxxxxxxxxxxxxxxxxxxxxxxxxxxxxx",
"xxxxxxxxxxxxxxxxxxxxxxxxxxxxxxxxxxxxxxxxxxxxxxxxxx",
"xxxxxxxxxxxxxxxxxxxxxxxxxxxxxxxxxxxxxxxxxxxxxxxxxx",
"xxxxxxxxxxxxxxxxxxxxxxxxxxxxxxxxxxxxxxxxxxxxxxxxxx",
"xxxxxxxxxxxxxxxxxxxxxxxxxxxxxxxxxxxxxxxxxxxxxxxxxx",
"xxxxxxxxxxxxxxxxxxxxxxxxxxxxxxxxxxxxxxxxxxxxxxxxxx",
"xxxxxxxxxxxxxxxxxxxxxxxxxxxxxxxxxxxxxxxxxxxxxxxxxx",
"xxxxxxxxxxxxxxxxxxxxxxxxxxxxxxxxxxxxxxxxxxxxxxxxxx",
"xxxxxxxxxxxxxxxxxxxxxxxxxxxxjiq2;*1jxxxxxxxxxxxxxx",
"xxxxxxxxxxxxxxxxxxxxxxlsr4:@       <xxxxxxxxxxxxxx",
"xxxxxxxxxxxxxxxxxxg9>%.            $xxxxxxxxxxxxxx",
"xxxxxxxxxxxxxxxxxho                &xxxxxxxxxxxxxx",
"xxxxxxxxxxxxxxxxxu                 <xxxxxxxxxxxxxx",
"xxxxxxxxxxxxxxxxxz:                rxxxxxxxxxxxxxx",
"xxxxxxxxxxxxxxxxxxz6               hxxxxxxxxxxxxxx",
"xxxxxxxxxxxxxxxxxxxx0             *xxxxxxxxxxxxxxx",
"xxxxxxxxxxxxxxxxxxxxl             6xxxxxxxxxxxxxxx",
"xxxxxxxxxxxxxxxxxxxxh             pxxxxxxxxxxxxxxx",
"xxxxxxxxxxxxxxxxxxxxe            Ozxxxxxxxxxxxxxxx",
"xxxxxxxxxxxxxxxxxxxx>            ,xxxxxxxxxxxxxxxx",
"xxxxxxxxxxxxxxxxxxxzO            exxxxxxxxxxxxxxxx",
"xxxxxxxxxxxxxxxxxxxp             hxxxxxxxxxxxxxxxx",
"xxxxxxxxxxxxxxxxxxx6            *xxxxxxxxxxxxxxxxx",
"xxxxxxxxxxxxxxxxxxx=            5xxxxxxxxxxxxxxxxx",
"xxxxxxxxxxxxxxxxxxj             pxxxxxxxxxxxxxxxxx",
"xxxxxxxxxxxxxxxxxxr            Ozxxxxxxxxxxxxxxxxx",
"xxxxxxxxxxxxxxxxxx<            >xxxxxxxxxxxxxxxxxx",
"xxxxxxxxxxxxxxxxxx+            exxxxxxxxxxxxxxxxxx",
"xxxxxxxxxxxxxxxxxa             hxxxxxxxxxxxxxxxxxx",
"xxxxxxxxxxxxxxxxx7            *xxxxxxxxxxxxxxxxxxx",
"xxxxxxxxxxxxxxxxx-            5xxxxxxxxxxxxxxxxxxx",
"xxxxxxxxxxxxxxxxk.            pxxxxxxxxxxxxxxxxxxx",
"xxxxxxxxxxxxxxxxt            Ozxxxxxxxxxxxxxxxxxxx",
"xxxxxxxxxxxxxxxx1            >xxxxxxxxxxxxxxxxxxxx",
"xxxxxxxxxxxxxxxx@            exxxxxxxxxxxxxxxxxxxx",
"xxxxxxxxxxxxxxxd             hxxxxxxxxxxxxxxxxxxxx",
"xxxxxxxxxxxxxxx8            *xxxxxxxxxxxxxxxxxxxxx",
"xxxxxxxxxxxxxxx*            2xxxxxxxxxxxxxxxxxxxxx",
"xxxxxxxxxxxxxz3             ;xxxxxxxxxxxxxxxxxxxxx",
"xxxxxxxxxxxh9#               1jxxxxxxxxxxxxxxxxxxx",
"xxxxxxxxxz5X                  +axxxxxxxxxxxxxxxxxx",
"xxxxxxxxxy                     <xxxxxxxxxxxxxxxxxx",
"xxxxxxxxxp                     rxxxxxxxxxxxxxxxxxx",
"xxxxxxxxxxi766666666666666667wfxxxxxxxxxxxxxxxxxxx",
"xxxxxxxxxxxxxxxxxxxxxxxxxxxxxxxxxxxxxxxxxxxxxxxxxx",
"xxxxxxxxxxxxxxxxxxxxxxxxxxxxxxxxxxxxxxxxxxxxxxxxxx",
"xxxxxxxxxxxxxxxxxxxxxxxxxxxxxxxxxxxxxxxxxxxxxxxxxx",
"xxxxxxxxxxxxxxxxxxxxxxxxxxxxxxxxxxxxxxxxxxxxxxxxxx",
"xxxxxxxxxxxxxxxxxxxxxxxxxxxxxxxxxxxxxxxxxxxxxxxxxx",
"xxxxxxxxxxxxxxxxxxxxxxxxxxxxxxxxxxxxxxxxxxxxxxxxxx"
};
